<svg width="30" height="30" viewBox="0 0 30 30" fill="none" xmlns="http://www.w3.org/2000/svg">
<path fill-rule="evenodd" clip-rule="evenodd" d="M7.6336 7.33016C8.78673 5.40828 11.0217 4.0625 15 4.0625C18.9783 4.0625 21.2133 5.40828 22.3664 7.33016C23.2284 8.76685 23.3969 10.4031 23.4297 11.626C24.5114 11.7683 25.8118 12.1667 26.9542 12.9892C28.4977 14.1005 29.6875 15.9445 29.6875 18.75C29.6875 21.5555 28.4977 23.3995 26.9542 24.5108C25.4586 25.5877 23.6919 25.9375 22.5 25.9375H7.5C6.30812 25.9375 4.54144 25.5877 3.04579 24.5108C1.50234 23.3995 0.3125 21.5555 0.3125 18.75C0.3125 15.9445 1.50234 14.1005 3.04579 12.9892C4.18816 12.1667 5.48863 11.7683 6.57033 11.626C6.6031 10.4031 6.77159 8.76684 7.6336 7.33016Z" fill="#B1B8C0"/>
</svg>
