<svg width="86" height="54" viewBox="0 0 86 54" fill="none" xmlns="http://www.w3.org/2000/svg">
<path d="M12.5 14.5L23.3253 20.75V33.25L12.5 39.5L1.67468 33.25V20.75L12.5 14.5Z" fill="#B1B8C0"/>
<path d="M40.5879 37H37.2041C37.1162 37 37.0723 36.9512 37.0723 36.8535V19.7441H33.1758C33.0781 19.7441 33.0293 19.6953 33.0293 19.5977L33.0586 16.2432C33.0586 16.165 33.0977 16.126 33.1758 16.126H44.5723C44.6797 16.126 44.7334 16.165 44.7334 16.2432V19.5977C44.7334 19.6953 44.6943 19.7441 44.6162 19.7441H40.6758L40.7051 36.8535C40.7051 36.9512 40.666 37 40.5879 37ZM51.75 37.293C50.6855 37.293 49.7041 37.0195 48.8057 36.4727C47.917 35.9258 47.1992 35.1982 46.6523 34.29C46.1152 33.3721 45.8467 32.3662 45.8467 31.2725L45.876 21.7656C45.876 20.6523 46.1445 19.6514 46.6816 18.7627C47.209 17.8643 47.9219 17.1465 48.8203 16.6094C49.7188 16.0625 50.6953 15.7891 51.75 15.7891C52.8438 15.7891 53.8252 16.0576 54.6943 16.5947C55.5732 17.1318 56.2764 17.8545 56.8037 18.7627C57.3408 19.6611 57.6094 20.6621 57.6094 21.7656L57.6387 31.2725C57.6387 32.3662 57.375 33.3672 56.8477 34.2754C56.3105 35.1934 55.5977 35.9258 54.709 36.4727C53.8203 37.0195 52.834 37.293 51.75 37.293ZM51.75 33.6748C52.3555 33.6748 52.8828 33.4307 53.332 32.9424C53.7812 32.4443 54.0059 31.8877 54.0059 31.2725L53.9766 21.7656C53.9766 21.1016 53.7666 20.54 53.3467 20.0811C52.9268 19.6221 52.3945 19.3926 51.75 19.3926C51.1348 19.3926 50.6074 19.6172 50.168 20.0664C49.7285 20.5156 49.5088 21.082 49.5088 21.7656V31.2725C49.5088 31.9268 49.7285 32.4932 50.168 32.9717C50.6074 33.4404 51.1348 33.6748 51.75 33.6748ZM63.4248 37H60.0557C59.958 37 59.9092 36.9512 59.9092 36.8535L59.9678 16.2432C59.9678 16.165 60.0068 16.126 60.085 16.126H69.6943C69.792 16.126 69.8408 16.165 69.8408 16.2432V19.627C69.8408 19.7051 69.8018 19.7441 69.7236 19.7441H63.5713V24.4023H69.7236C69.8018 24.4023 69.8408 24.4512 69.8408 24.5488L69.8701 27.9473C69.8701 28.0254 69.8213 28.0645 69.7236 28.0645H63.5713V36.8535C63.5713 36.9512 63.5225 37 63.4248 37ZM78.0586 37.293C77.0039 37.293 76.0273 37.0195 75.1289 36.4727C74.2305 35.9258 73.5127 35.1934 72.9756 34.2754C72.4482 33.3477 72.1846 32.3369 72.1846 31.2432L72.2432 16.2432C72.2432 16.165 72.2822 16.126 72.3604 16.126H75.7295C75.8076 16.126 75.8467 16.165 75.8467 16.2432V31.2432C75.8467 31.917 76.0615 32.4932 76.4912 32.9717C76.9209 33.4404 77.4434 33.6748 78.0586 33.6748C78.7031 33.6748 79.2402 33.4404 79.6699 32.9717C80.0996 32.4932 80.3145 31.917 80.3145 31.2432V16.2432C80.3145 16.165 80.3535 16.126 80.4316 16.126H83.8008C83.8789 16.126 83.918 16.165 83.918 16.2432L83.9766 31.2432C83.9766 32.3467 83.7129 33.3623 83.1855 34.29C82.6484 35.208 81.9355 35.9404 81.0469 36.4873C80.1582 37.0244 79.1621 37.293 78.0586 37.293Z" fill="#B1B8C0"/>
</svg>
