<svg width="30" height="30" viewBox="0 0 30 30" fill="none" xmlns="http://www.w3.org/2000/svg">
<g clip-path="url(#clip0_202_79)">
<path fill-rule="evenodd" clip-rule="evenodd" d="M3.08709 26.9129C3.4532 27.279 4.0468 27.279 4.41291 26.9129L12.5379 18.7879C12.904 18.4218 12.904 17.8282 12.5379 17.4621C12.1718 17.096 11.5782 17.096 11.2121 17.4621L3.08709 25.5871C2.72097 25.9532 2.72097 26.5468 3.08709 26.9129Z" fill="#B1B8C0"/>
<path d="M6.25009 11.8566L17.7406 23.3471L19.8619 21.2257L19.3717 16.493L26.2581 10.6514L18.946 3.33926L13.1042 10.2254L8.37141 9.73528L6.25009 11.8566Z" fill="#B1B8C0"/>
<path fill-rule="evenodd" clip-rule="evenodd" d="M18.9076 2.40255C19.1693 2.39183 19.4236 2.49111 19.6089 2.67635L26.921 9.98846C27.1062 10.1737 27.2055 10.428 27.1948 10.6898C27.1841 10.9515 27.0643 11.1968 26.8645 11.3663L20.3552 16.8881L20.7944 21.1292C20.8235 21.41 20.7244 21.689 20.5248 21.8886L18.4035 24.01C18.2277 24.1858 17.9892 24.2846 17.7406 24.2846C17.4919 24.2846 17.2535 24.1858 17.0777 24.01L5.58718 12.5195C5.22106 12.1534 5.22106 11.5598 5.58718 11.1937L7.7085 9.07237C7.90814 8.87272 8.18714 8.77368 8.46798 8.80277L12.7091 9.24199L18.231 2.73278C18.4005 2.53302 18.6458 2.41327 18.9076 2.40255ZM19.0026 4.72171L13.8191 10.8319C13.619 11.0678 13.3153 11.1898 13.0076 11.1579L8.71875 10.7138L7.57591 11.8566L17.7406 22.0213L18.8834 20.8784L18.4392 16.5895C18.4073 16.2818 18.5293 15.9782 18.7653 15.778L24.8756 10.5947L19.0026 4.72171Z" fill="#B1B8C0"/>
</g>
<defs>
<clipPath id="clip0_202_79">
<rect width="30" height="30" fill="white"/>
</clipPath>
</defs>
</svg>
